<svg width="1006" height="273" viewBox="0 0 1006 273" fill="none" xmlns="http://www.w3.org/2000/svg">
<path d="M142 168.5C142 173.148 140.522 177.691 137.753 181.556C134.984 185.42 131.048 188.433 126.442 190.211C121.837 191.99 116.769 192.455 111.88 191.548C106.991 190.642 102.5 188.403 98.9757 185.117L98.8272 184.97L71.847 156.562C69.321 154.234 66.1131 152.655 62.6269 152.024C59.1407 151.392 55.532 151.736 52.255 153.012C48.9779 154.288 46.1789 156.44 44.2102 159.196C42.2415 161.951 41.191 165.189 41.191 168.5C41.191 171.811 42.2415 175.049 44.2102 177.804C46.1789 180.56 48.9779 182.712 52.255 183.988C55.532 185.264 59.1407 185.608 62.6269 184.976C66.1131 184.345 69.321 182.766 71.847 180.438L75.6814 176.401C76.3146 175.734 77.2063 175.328 78.1605 175.273C79.1146 175.218 80.053 175.519 80.7691 176.11C81.4853 176.7 81.9206 177.532 81.9792 178.421C82.0379 179.311 81.7151 180.186 81.0819 180.853L77.171 184.97L77.0225 185.117C73.4978 188.403 69.0071 190.64 64.1183 191.547C59.2296 192.453 54.1624 191.988 49.5573 190.209C44.9523 188.431 41.0164 185.419 38.2472 181.555C35.478 177.69 34 173.147 34 168.5C34 163.853 35.478 159.31 38.2472 155.445C41.0164 151.581 44.9523 148.569 49.5573 146.791C54.1624 145.012 59.2296 144.547 64.1183 145.453C69.0071 146.36 73.4978 148.597 77.0225 151.883L77.171 152.03L104.151 180.438C106.677 182.766 109.885 184.345 113.371 184.976C116.857 185.608 120.466 185.264 123.743 183.988C127.02 182.712 129.819 180.56 131.788 177.804C133.757 175.049 134.807 171.811 134.807 168.5C134.807 165.189 133.757 161.951 131.788 159.196C129.819 156.44 127.02 154.288 123.743 153.012C120.466 151.736 116.857 151.392 113.371 152.024C109.885 152.655 106.677 154.234 104.151 156.562L100.317 160.599C99.6836 161.266 98.7919 161.672 97.8377 161.727C96.8836 161.782 95.9452 161.481 95.2291 160.89C94.5129 160.3 94.0776 159.468 94.019 158.579C93.9603 157.689 94.2831 156.814 94.9163 156.147L98.8272 152.03L98.9757 151.883C102.5 148.597 106.991 146.358 111.88 145.452C116.769 144.545 121.837 145.01 126.442 146.789C131.048 148.567 134.984 151.58 137.753 155.444C140.522 159.309 142 163.852 142 168.5Z" fill="#737370"/>
<path d="M979 168.5C979 173.148 977.522 177.691 974.753 181.556C971.984 185.42 968.048 188.433 963.442 190.211C958.837 191.99 953.769 192.455 948.88 191.548C943.991 190.642 939.5 188.403 935.976 185.117L935.827 184.97L908.847 156.562C906.321 154.234 903.113 152.655 899.627 152.024C896.141 151.392 892.532 151.736 889.255 153.012C885.978 154.288 883.179 156.44 881.21 159.196C879.241 161.951 878.191 165.189 878.191 168.5C878.191 171.811 879.241 175.049 881.21 177.804C883.179 180.56 885.978 182.712 889.255 183.988C892.532 185.264 896.141 185.608 899.627 184.976C903.113 184.345 906.321 182.766 908.847 180.438L912.681 176.401C913.315 175.734 914.206 175.328 915.16 175.273C916.115 175.218 917.053 175.519 917.769 176.11C918.485 176.7 918.921 177.532 918.979 178.421C919.038 179.311 918.715 180.186 918.082 180.853L914.171 184.97L914.022 185.117C910.498 188.403 906.007 190.64 901.118 191.547C896.23 192.453 891.162 191.988 886.557 190.209C881.952 188.431 878.016 185.419 875.247 181.555C872.478 177.69 871 173.147 871 168.5C871 163.853 872.478 159.31 875.247 155.445C878.016 151.581 881.952 148.569 886.557 146.791C891.162 145.012 896.23 144.547 901.118 145.453C906.007 146.36 910.498 148.597 914.022 151.883L914.171 152.03L941.151 180.438C943.677 182.766 946.885 184.345 950.371 184.976C953.857 185.608 957.466 185.264 960.743 183.988C964.02 182.712 966.819 180.56 968.788 177.804C970.757 175.049 971.807 171.811 971.807 168.5C971.807 165.189 970.757 161.951 968.788 159.196C966.819 156.44 964.02 154.288 960.743 153.012C957.466 151.736 953.857 151.392 950.371 152.024C946.885 152.655 943.677 154.234 941.151 156.562L937.317 160.599C936.684 161.266 935.792 161.672 934.838 161.727C933.884 161.782 932.945 161.481 932.229 160.89C931.513 160.3 931.078 159.468 931.019 158.579C930.96 157.689 931.283 156.814 931.916 156.147L935.827 152.03L935.976 151.883C939.5 148.597 943.991 146.358 948.88 145.452C953.769 144.545 958.837 145.01 963.442 146.789C968.048 148.567 971.984 151.58 974.753 155.444C977.522 159.309 979 163.852 979 168.5Z" fill="#737370"/>
<path d="M501.087 197.119C496.812 197.102 493.133 196.05 490.05 193.962C486.985 191.874 484.623 188.849 482.966 184.888C481.325 180.928 480.513 176.163 480.53 170.595C480.53 165.044 481.35 160.312 482.991 156.401C484.648 152.49 487.009 149.516 490.075 147.477C493.158 145.422 496.828 144.395 501.087 144.395C505.346 144.395 509.009 145.422 512.075 147.477C515.157 149.532 517.527 152.515 519.184 156.426C520.841 160.321 521.661 165.044 521.645 170.595C521.645 176.18 520.816 180.953 519.159 184.913C517.518 188.874 515.165 191.898 512.099 193.987C509.034 196.075 505.363 197.119 501.087 197.119ZM501.087 188.195C504.004 188.195 506.332 186.728 508.072 183.795C509.813 180.862 510.674 176.462 510.658 170.595C510.658 166.734 510.26 163.519 509.464 160.95C508.686 158.382 507.575 156.451 506.134 155.158C504.708 153.866 503.026 153.219 501.087 153.219C498.187 153.219 495.867 154.67 494.127 157.57C492.387 160.47 491.509 164.812 491.492 170.595C491.492 174.506 491.882 177.771 492.661 180.389C493.456 182.991 494.575 184.946 496.016 186.256C497.458 187.548 499.148 188.195 501.087 188.195Z" fill="#737370"/>
<path d="M257.015 166.344V174.746H233.798V166.344H257.015ZM284.533 196.696C281.019 196.696 277.887 196.05 275.136 194.757C272.402 193.464 270.231 191.683 268.624 189.413C267.016 187.142 266.179 184.54 266.113 181.607H276.553C276.669 183.579 277.498 185.179 279.039 186.405C280.58 187.631 282.411 188.244 284.533 188.244C286.223 188.244 287.714 187.871 289.007 187.126C290.316 186.363 291.335 185.311 292.065 183.969C292.81 182.61 293.183 181.052 293.183 179.295C293.183 177.506 292.802 175.931 292.04 174.572C291.294 173.214 290.258 172.153 288.933 171.391C287.607 170.628 286.09 170.239 284.384 170.222C282.892 170.222 281.442 170.529 280.033 171.142C278.641 171.755 277.556 172.592 276.777 173.653L267.207 171.938L269.618 145.091H300.74V153.891H278.492L277.175 166.643H277.473C278.368 165.383 279.719 164.339 281.525 163.511C283.331 162.682 285.353 162.268 287.59 162.268C290.656 162.268 293.39 162.989 295.793 164.43C298.196 165.872 300.094 167.853 301.486 170.371C302.878 172.874 303.566 175.757 303.549 179.022C303.566 182.452 302.77 185.502 301.163 188.17C299.572 190.821 297.343 192.909 294.476 194.434C291.625 195.942 288.311 196.696 284.533 196.696Z" fill="#737370"/>
<path d="M744.72 196.696C741.207 196.696 738.075 196.05 735.324 194.757C732.589 193.464 730.419 191.683 728.811 189.413C727.204 187.142 726.367 184.54 726.3 181.607H736.741C736.857 183.579 737.685 185.179 739.227 186.405C740.768 187.631 742.599 188.244 744.72 188.244C746.411 188.244 747.902 187.871 749.195 187.126C750.504 186.363 751.523 185.311 752.252 183.969C752.998 182.61 753.371 181.052 753.371 179.295C753.371 177.506 752.99 175.931 752.227 174.572C751.482 173.214 750.446 172.153 749.12 171.391C747.794 170.628 746.278 170.239 744.571 170.222C743.08 170.222 741.629 170.529 740.221 171.142C738.829 171.755 737.743 172.592 736.964 173.653L727.394 171.938L729.805 145.091H760.928V153.891H738.68L737.362 166.643H737.661C738.555 165.383 739.906 164.339 741.712 163.511C743.519 162.682 745.54 162.268 747.778 162.268C750.844 162.268 753.578 162.989 755.981 164.43C758.384 165.872 760.281 167.853 761.673 170.371C763.065 172.874 763.753 175.757 763.737 179.022C763.753 182.452 762.958 185.502 761.35 188.17C759.759 190.821 757.53 192.909 754.663 194.434C751.813 195.942 748.499 196.696 744.72 196.696Z" fill="#737370"/>
<path d="M29.0149 166.893V175.295H5.79759V166.893H29.0149Z" fill="#737370"/>
<path d="M1.22802 122.67C0.251711 123.646 0.251711 125.229 1.22802 126.205L17.1379 142.115C18.1142 143.091 19.6971 143.091 20.6735 142.115C21.6498 141.139 21.6498 139.556 20.6735 138.58L6.53132 124.438L20.6735 110.295C21.6498 109.319 21.6498 107.736 20.6735 106.76C19.6971 105.784 18.1142 105.784 17.1379 106.76L1.22802 122.67ZM1004.76 126.205C1005.74 125.229 1005.74 123.646 1004.76 122.67L988.854 106.76C987.877 105.784 986.294 105.784 985.318 106.76C984.342 107.736 984.342 109.319 985.318 110.295L999.46 124.438L985.318 138.58C984.342 139.556 984.342 141.139 985.318 142.115C986.294 143.091 987.877 143.091 988.854 142.115L1004.76 126.205ZM2.99579 126.938H1003V121.938H2.99579V126.938Z" fill="#82D1F5"/>
<circle cx="503" cy="124" r="20" fill="#82D1F5"/>
<path d="M574.818 67L575.727 61.8864C575.992 60.3333 576.542 58.6856 577.375 56.9432C578.227 55.1818 579.316 53.4867 580.642 51.858C581.987 50.2102 583.53 48.7803 585.273 47.5682L588.341 50.5227C586.92 52.2273 585.604 54.0076 584.392 55.8636C583.199 57.7008 582.432 59.6705 582.091 61.7727L581.182 67H574.818ZM589.364 67L590.273 61.8864C590.538 60.3333 591.087 58.6856 591.92 56.9432C592.773 55.1818 593.862 53.4867 595.188 51.858C596.532 50.2102 598.076 48.7803 599.818 47.5682L602.886 50.5227C601.466 52.2273 600.15 54.0076 598.938 55.8636C597.744 57.7008 596.977 59.6705 596.636 61.7727L595.727 67H589.364ZM598.241 123.364L608.298 63.3636H614.776L613.639 70.2955H614.435C615.041 69.5379 615.874 68.572 616.935 67.3977C618.014 66.2045 619.463 65.1439 621.281 64.2159C623.118 63.2689 625.457 62.7955 628.298 62.7955C631.973 62.7955 635.05 63.714 637.531 65.5511C640.012 67.3883 641.764 69.9924 642.787 73.3636C643.81 76.7348 643.942 80.7121 643.185 85.2955C642.427 89.9167 640.978 93.9223 638.838 97.3125C636.698 100.684 634.084 103.297 630.997 105.153C627.91 106.991 624.548 107.909 620.912 107.909C618.109 107.909 615.94 107.445 614.406 106.517C612.872 105.57 611.755 104.5 611.054 103.307C610.353 102.095 609.813 101.091 609.435 100.295H608.866L605.003 123.364H598.241ZM611.253 85.1818C610.723 88.4773 610.723 91.3845 611.253 93.9034C611.802 96.4034 612.891 98.3636 614.52 99.7841C616.168 101.186 618.336 101.886 621.026 101.886C623.829 101.886 626.281 101.148 628.384 99.6705C630.505 98.1742 632.247 96.1667 633.611 93.6477C634.993 91.1098 635.95 88.2879 636.48 85.1818C636.973 82.1136 636.954 79.3485 636.423 76.8864C635.893 74.4053 634.813 72.4451 633.185 71.0057C631.556 69.5473 629.321 68.8182 626.48 68.8182C623.753 68.8182 621.338 69.5095 619.236 70.892C617.152 72.2557 615.429 74.1686 614.065 76.6307C612.721 79.0739 611.783 81.9242 611.253 85.1818ZM667.808 107.909C663.793 107.909 660.431 106.953 657.723 105.04C655.015 103.127 653.102 100.447 651.984 97C650.886 93.553 650.706 89.5379 651.445 84.9545C652.164 80.4848 653.594 76.5928 655.734 73.2784C657.893 69.9451 660.573 67.3693 663.774 65.5511C666.994 63.714 670.536 62.7955 674.399 62.7955C678.414 62.7955 681.767 63.7614 684.456 65.6932C687.164 67.6061 689.077 70.2955 690.195 73.7614C691.312 77.2083 691.501 81.2424 690.763 85.8636C690.043 90.2955 688.594 94.1686 686.416 97.483C684.257 100.778 681.577 103.345 678.376 105.182C675.195 107 671.672 107.909 667.808 107.909ZM667.922 101.886C670.99 101.886 673.651 101.1 675.905 99.5284C678.178 97.9564 680.015 95.8826 681.416 93.3068C682.837 90.7311 683.793 87.947 684.286 84.9545C684.74 82.1136 684.721 79.4716 684.229 77.0284C683.736 74.5663 682.685 72.5871 681.075 71.0909C679.465 69.5758 677.202 68.8182 674.286 68.8182C671.217 68.8182 668.537 69.6136 666.246 71.2045C663.973 72.7955 662.136 74.8883 660.734 77.483C659.333 80.0777 658.395 82.8712 657.922 85.8636C657.467 88.7045 657.477 91.3466 657.95 93.7898C658.443 96.214 659.494 98.1742 661.104 99.6705C662.732 101.148 665.005 101.886 667.922 101.886ZM734.122 73.1364L727.759 74.8409C727.531 73.8182 727.134 72.8333 726.565 71.8864C726.016 70.9205 725.164 70.1345 724.009 69.5284C722.872 68.9034 721.319 68.5909 719.349 68.5909C716.679 68.5909 714.359 69.2064 712.389 70.4375C710.42 71.6496 709.293 73.1932 709.009 75.0682C708.724 76.7159 709.103 78.0322 710.145 79.017C711.187 80.0019 712.929 80.8068 715.372 81.4318L721.622 83.0227C725.372 83.9886 728.043 85.4375 729.634 87.3693C731.243 89.2822 731.793 91.7727 731.281 94.8409C730.865 97.3409 729.776 99.5758 728.014 101.545C726.253 103.515 723.999 105.068 721.253 106.205C718.507 107.341 715.448 107.909 712.077 107.909C707.588 107.909 704.046 106.943 701.452 105.011C698.857 103.061 697.474 100.239 697.304 96.5455L704.009 94.9545C704.179 97.2841 705.012 99.0455 706.509 100.239C708.024 101.413 710.145 102 712.872 102C715.997 102 718.601 101.337 720.685 100.011C722.768 98.6667 723.952 97.0568 724.236 95.1818C724.52 93.6477 724.217 92.3693 723.327 91.3466C722.455 90.3239 720.94 89.5568 718.781 89.0455L711.849 87.3409C707.986 86.375 705.277 84.8977 703.724 82.9091C702.19 80.9205 701.679 78.4205 702.19 75.4091C702.607 72.947 703.668 70.7689 705.372 68.875C707.096 66.9811 709.255 65.4943 711.849 64.4148C714.463 63.3352 717.304 62.7955 720.372 62.7955C724.69 62.7955 727.92 63.7424 730.06 65.6364C732.2 67.5114 733.554 70.0114 734.122 73.1364ZM739.328 107L746.601 63.3636H753.305L746.033 107H739.328ZM751.999 55.9773C750.692 55.9773 749.565 55.5322 748.618 54.642C747.69 53.7519 747.226 52.6818 747.226 51.4318C747.226 50.1818 747.69 49.1117 748.618 48.2216C749.565 47.3314 750.692 46.8864 751.999 46.8864C753.305 46.8864 754.423 47.3314 755.351 48.2216C756.298 49.1117 756.771 50.1818 756.771 51.4318C756.771 52.6818 756.298 53.7519 755.351 54.642C754.423 55.5322 753.305 55.9773 751.999 55.9773ZM784.562 63.3636L783.653 69.0455H761.04L761.949 63.3636H784.562ZM770.244 52.9091H776.949L770.017 94.5C769.714 96.3939 769.761 97.8144 770.159 98.7614C770.576 99.6894 771.201 100.314 772.034 100.636C772.886 100.939 773.805 101.091 774.79 101.091C775.528 101.091 776.134 101.053 776.608 100.977C777.081 100.883 777.46 100.807 777.744 100.75L778.199 106.773C777.688 106.943 776.996 107.114 776.125 107.284C775.273 107.473 774.222 107.568 772.972 107.568C771.078 107.568 769.297 107.161 767.631 106.347C765.964 105.532 764.686 104.292 763.795 102.625C762.905 100.958 762.669 98.8561 763.085 96.3182L770.244 52.9091ZM787.375 107L794.648 63.3636H801.352L794.08 107H787.375ZM800.045 55.9773C798.739 55.9773 797.612 55.5322 796.665 54.642C795.737 53.7519 795.273 52.6818 795.273 51.4318C795.273 50.1818 795.737 49.1117 796.665 48.2216C797.612 47.3314 798.739 46.8864 800.045 46.8864C801.352 46.8864 802.47 47.3314 803.398 48.2216C804.345 49.1117 804.818 50.1818 804.818 51.4318C804.818 52.6818 804.345 53.7519 803.398 54.642C802.47 55.5322 801.352 55.9773 800.045 55.9773ZM849.314 63.3636L825.905 107H819.087L810.223 63.3636H817.212L823.462 98.1364H823.916L841.757 63.3636H849.314ZM867.51 107.909C863.324 107.909 859.868 106.981 857.141 105.125C854.413 103.25 852.51 100.636 851.43 97.2841C850.351 93.9129 850.18 89.9924 850.919 85.5227C851.658 81.053 853.125 77.1136 855.322 73.7045C857.519 70.2765 860.256 67.6061 863.533 65.6932C866.809 63.7614 870.408 62.7955 874.328 62.7955C876.601 62.7955 878.788 63.1742 880.891 63.9318C882.993 64.6894 884.811 65.9205 886.345 67.625C887.879 69.3106 888.949 71.5455 889.555 74.3295C890.161 77.1136 890.124 80.5417 889.442 84.6136L888.987 87.4545H855.351L856.26 81.6591H883.078C883.514 79.197 883.4 77 882.737 75.0682C882.093 73.1364 880.966 71.6117 879.357 70.4943C877.766 69.3769 875.749 68.8182 873.305 68.8182C870.786 68.8182 868.438 69.5 866.26 70.8636C864.082 72.2083 862.264 73.9129 860.805 75.9773C859.347 78.0227 858.438 80.1061 858.078 82.2273L857.283 87.2273C856.714 90.8447 856.8 93.7235 857.538 95.8636C858.296 98.0038 859.612 99.5473 861.487 100.494C863.362 101.422 865.711 101.886 868.533 101.886C870.332 101.886 871.989 101.64 873.504 101.148C875.019 100.636 876.374 99.8788 877.567 98.875C878.76 97.8523 879.764 96.5833 880.578 95.0682L886.714 96.8864C885.673 99.0833 884.205 101.015 882.311 102.682C880.436 104.33 878.239 105.617 875.72 106.545C873.22 107.455 870.483 107.909 867.51 107.909ZM911.615 48.8182L910.82 53.9318C910.573 55.4848 910.015 57.142 909.143 58.9034C908.291 60.6458 907.193 62.3409 905.848 63.9886C904.503 65.6174 902.979 67.0379 901.274 68.25L898.092 65.2955C899.57 63.5909 900.886 61.8201 902.041 59.983C903.215 58.1269 903.982 56.1477 904.342 54.0455L905.251 48.8182H911.615ZM926.161 48.8182L925.365 53.9318C925.119 55.4848 924.56 57.142 923.689 58.9034C922.837 60.6458 921.738 62.3409 920.393 63.9886C919.049 65.6174 917.524 67.0379 915.82 68.25L912.638 65.2955C914.115 63.5909 915.431 61.8201 916.587 59.983C917.761 58.1269 918.528 56.1477 918.888 54.0455L919.797 48.8182H926.161Z" fill="#FA8F00"/>
<path d="M393.818 207L394.727 201.886C394.992 200.333 395.542 198.686 396.375 196.943C397.227 195.182 398.316 193.487 399.642 191.858C400.987 190.21 402.53 188.78 404.273 187.568L407.341 190.523C405.92 192.227 404.604 194.008 403.392 195.864C402.199 197.701 401.432 199.67 401.091 201.773L400.182 207H393.818ZM408.364 207L409.273 201.886C409.538 200.333 410.087 198.686 410.92 196.943C411.773 195.182 412.862 193.487 414.188 191.858C415.532 190.21 417.076 188.78 418.818 187.568L421.886 190.523C420.466 192.227 419.15 194.008 417.938 195.864C416.744 197.701 415.977 199.67 415.636 201.773L414.727 207H408.364ZM418.719 247L419.628 241.886L449.628 210.068L449.741 209.614H425.764L426.787 203.364H459.401L458.491 208.705L429.173 240.295L429.06 240.75H453.946L452.923 247H418.719ZM480.182 247.909C475.996 247.909 472.54 246.981 469.812 245.125C467.085 243.25 465.182 240.636 464.102 237.284C463.023 233.913 462.852 229.992 463.591 225.523C464.33 221.053 465.797 217.114 467.994 213.705C470.191 210.277 472.928 207.606 476.205 205.693C479.481 203.761 483.08 202.795 487 202.795C489.273 202.795 491.46 203.174 493.562 203.932C495.665 204.689 497.483 205.92 499.017 207.625C500.551 209.311 501.621 211.545 502.227 214.33C502.833 217.114 502.795 220.542 502.114 224.614L501.659 227.455H468.023L468.932 221.659H495.75C496.186 219.197 496.072 217 495.409 215.068C494.765 213.136 493.638 211.612 492.028 210.494C490.438 209.377 488.42 208.818 485.977 208.818C483.458 208.818 481.11 209.5 478.932 210.864C476.754 212.208 474.936 213.913 473.477 215.977C472.019 218.023 471.11 220.106 470.75 222.227L469.955 227.227C469.386 230.845 469.472 233.723 470.21 235.864C470.968 238.004 472.284 239.547 474.159 240.494C476.034 241.422 478.383 241.886 481.205 241.886C483.004 241.886 484.661 241.64 486.176 241.148C487.691 240.636 489.045 239.879 490.239 238.875C491.432 237.852 492.436 236.583 493.25 235.068L499.386 236.886C498.345 239.083 496.877 241.015 494.983 242.682C493.108 244.33 490.911 245.617 488.392 246.545C485.892 247.455 483.155 247.909 480.182 247.909ZM508.719 247L515.991 203.364H522.469L521.332 209.955H521.787C522.923 207.795 524.656 206.044 526.986 204.699C529.315 203.354 531.787 202.682 534.401 202.682C534.912 202.682 535.527 202.691 536.247 202.71C536.967 202.71 537.526 202.739 537.923 202.795L536.787 209.614C536.56 209.557 536.048 209.472 535.253 209.358C534.457 209.225 533.605 209.159 532.696 209.159C530.575 209.159 528.615 209.604 526.815 210.494C525.016 211.366 523.51 212.578 522.298 214.131C521.086 215.665 520.31 217.417 519.969 219.386L515.423 247H508.719ZM555.324 247.909C551.309 247.909 547.947 246.953 545.239 245.04C542.53 243.127 540.617 240.447 539.5 237C538.402 233.553 538.222 229.538 538.96 224.955C539.68 220.485 541.11 216.593 543.25 213.278C545.409 209.945 548.089 207.369 551.29 205.551C554.509 203.714 558.051 202.795 561.915 202.795C565.93 202.795 569.282 203.761 571.972 205.693C574.68 207.606 576.593 210.295 577.71 213.761C578.828 217.208 579.017 221.242 578.278 225.864C577.559 230.295 576.11 234.169 573.932 237.483C571.773 240.778 569.093 243.345 565.892 245.182C562.71 247 559.188 247.909 555.324 247.909ZM555.438 241.886C558.506 241.886 561.167 241.1 563.42 239.528C565.693 237.956 567.53 235.883 568.932 233.307C570.352 230.731 571.309 227.947 571.801 224.955C572.256 222.114 572.237 219.472 571.744 217.028C571.252 214.566 570.201 212.587 568.591 211.091C566.981 209.576 564.718 208.818 561.801 208.818C558.733 208.818 556.053 209.614 553.761 211.205C551.489 212.795 549.652 214.888 548.25 217.483C546.848 220.078 545.911 222.871 545.438 225.864C544.983 228.705 544.992 231.347 545.466 233.79C545.958 236.214 547.009 238.174 548.619 239.67C550.248 241.148 552.521 241.886 555.438 241.886ZM600.615 188.818L599.82 193.932C599.573 195.485 599.015 197.142 598.143 198.903C597.291 200.646 596.193 202.341 594.848 203.989C593.503 205.617 591.979 207.038 590.274 208.25L587.092 205.295C588.57 203.591 589.886 201.82 591.041 199.983C592.215 198.127 592.982 196.148 593.342 194.045L594.251 188.818H600.615ZM615.161 188.818L614.365 193.932C614.119 195.485 613.56 197.142 612.689 198.903C611.837 200.646 610.738 202.341 609.393 203.989C608.049 205.617 606.524 207.038 604.82 208.25L601.638 205.295C603.115 203.591 604.431 201.82 605.587 199.983C606.761 198.127 607.528 196.148 607.888 194.045L608.797 188.818H615.161Z" fill="#FA8F00"/>
<path d="M63.8182 62L64.7273 56.8864C64.9924 55.3333 65.5417 53.6856 66.375 51.9432C67.2273 50.1818 68.3163 48.4867 69.642 46.858C70.9867 45.2102 72.5303 43.7803 74.2727 42.5682L77.3409 45.5227C75.9205 47.2273 74.6042 49.0076 73.392 50.8636C72.1989 52.7008 71.4318 54.6705 71.0909 56.7727L70.1818 62H63.8182ZM78.3636 62L79.2727 56.8864C79.5379 55.3333 80.0871 53.6856 80.9205 51.9432C81.7727 50.1818 82.8617 48.4867 84.1875 46.858C85.5322 45.2102 87.0758 43.7803 88.8182 42.5682L91.8864 45.5227C90.4659 47.2273 89.1496 49.0076 87.9375 50.8636C86.7443 52.7008 85.9773 54.6705 85.6364 56.7727L84.7273 62H78.3636ZM100.991 75.75L96.6733 102H89.9688L97.2415 58.3636H103.719L102.582 65.1818H103.151C104.514 62.9659 106.361 61.1856 108.69 59.8409C111.02 58.4773 113.832 57.7955 117.128 57.7955C120.045 57.7955 122.507 58.4015 124.514 59.6136C126.541 60.8068 127.971 62.625 128.804 65.0682C129.656 67.4924 129.779 70.5606 129.173 74.2727L124.514 102H117.81L122.355 74.7273C122.923 71.3182 122.478 68.6477 121.02 66.7159C119.58 64.7841 117.298 63.8182 114.173 63.8182C112.014 63.8182 110.016 64.2822 108.179 65.2102C106.361 66.1383 104.817 67.4924 103.548 69.2727C102.298 71.053 101.446 73.2121 100.991 75.75ZM154.947 102.909C150.762 102.909 147.305 101.981 144.578 100.125C141.851 98.25 139.947 95.6364 138.868 92.2841C137.788 88.9129 137.618 84.9924 138.357 80.5227C139.095 76.053 140.563 72.1136 142.76 68.7045C144.957 65.2765 147.694 62.6061 150.97 60.6932C154.247 58.7614 157.845 57.7955 161.766 57.7955C164.038 57.7955 166.226 58.1742 168.328 58.9318C170.43 59.6894 172.249 60.9205 173.783 62.625C175.317 64.3106 176.387 66.5455 176.993 69.3295C177.599 72.1136 177.561 75.5417 176.879 79.6136L176.425 82.4545H142.788L143.697 76.6591H170.516C170.951 74.197 170.838 72 170.175 70.0682C169.531 68.1364 168.404 66.6117 166.794 65.4943C165.203 64.3769 163.186 63.8182 160.743 63.8182C158.224 63.8182 155.875 64.5 153.697 65.8636C151.519 67.2083 149.701 68.9129 148.243 70.9773C146.785 73.0227 145.875 75.1061 145.516 77.2273L144.72 82.2273C144.152 85.8447 144.237 88.7235 144.976 90.8636C145.733 93.0038 147.05 94.5473 148.925 95.4943C150.8 96.4223 153.148 96.8864 155.97 96.8864C157.769 96.8864 159.427 96.6402 160.942 96.1477C162.457 95.6364 163.811 94.8788 165.004 93.875C166.197 92.8523 167.201 91.5833 168.016 90.0682L174.152 91.8864C173.11 94.0833 171.643 96.0152 169.749 97.6818C167.874 99.3295 165.677 100.617 163.158 101.545C160.658 102.455 157.921 102.909 154.947 102.909ZM198.371 119.273C195.113 119.273 192.386 118.856 190.189 118.023C187.992 117.208 186.231 116.129 184.905 114.784C183.579 113.458 182.575 112.038 181.893 110.523L187.916 106.773C188.371 107.568 188.958 108.477 189.678 109.5C190.397 110.542 191.486 111.441 192.945 112.199C194.422 112.975 196.496 113.364 199.166 113.364C202.67 113.364 205.738 112.511 208.371 110.807C211.003 109.102 212.632 106.432 213.257 102.795L214.621 93.9318H214.053C213.446 94.7273 212.604 95.7121 211.524 96.8864C210.445 98.0417 208.996 99.0739 207.178 99.983C205.359 100.873 203.03 101.318 200.189 101.318C196.647 101.318 193.617 100.485 191.098 98.8182C188.579 97.1515 186.77 94.7273 185.672 91.5455C184.592 88.3636 184.431 84.5 185.189 79.9545C185.928 75.4848 187.348 71.5928 189.45 68.2784C191.571 64.9451 194.185 62.3693 197.291 60.5511C200.397 58.714 203.787 57.7955 207.462 57.7955C210.303 57.7955 212.481 58.2689 213.996 59.2159C215.53 60.1439 216.647 61.2045 217.348 62.3977C218.049 63.572 218.579 64.5379 218.939 65.2955H219.621L220.757 58.3636H227.234L219.848 103.25C219.223 107 217.869 110.049 215.786 112.398C213.702 114.765 211.145 116.498 208.115 117.597C205.085 118.714 201.837 119.273 198.371 119.273ZM201.893 95.2955C204.564 95.2955 206.941 94.6799 209.024 93.4489C211.126 92.2178 212.869 90.447 214.251 88.1364C215.634 85.8258 216.59 83.0606 217.121 79.8409C217.651 76.697 217.613 73.9223 217.007 71.517C216.401 69.1117 215.255 67.2273 213.57 65.8636C211.903 64.5 209.715 63.8182 207.007 63.8182C204.147 63.8182 201.676 64.5379 199.592 65.9773C197.528 67.4167 195.852 69.3485 194.564 71.7727C193.276 74.197 192.386 76.8864 191.893 79.8409C191.401 82.8712 191.42 85.5511 191.95 87.8807C192.481 90.1913 193.56 92.0095 195.189 93.3352C196.837 94.642 199.071 95.2955 201.893 95.2955ZM244.962 103.023C242.196 103.023 239.772 102.502 237.689 101.46C235.606 100.4 234.062 98.875 233.058 96.8864C232.054 94.8788 231.78 92.4545 232.234 89.6136C232.67 87.1136 233.513 85.0871 234.763 83.5341C236.013 81.9621 237.528 80.7311 239.308 79.8409C241.107 78.9318 243.039 78.2595 245.104 77.8239C247.187 77.3693 249.261 77.0189 251.325 76.7727C254.015 76.4318 256.202 76.1667 257.888 75.9773C259.573 75.7879 260.842 75.4754 261.695 75.0398C262.547 74.6042 263.068 73.8561 263.257 72.7955V72.5682C263.712 69.7841 263.342 67.6155 262.149 66.0625C260.956 64.4905 258.825 63.7045 255.757 63.7045C252.575 63.7045 249.914 64.4053 247.774 65.8068C245.634 67.2083 244.053 68.7045 243.03 70.2955L237.121 68.0227C238.674 65.3712 240.53 63.3068 242.689 61.8295C244.848 60.3333 247.111 59.2917 249.479 58.7045C251.846 58.0985 254.128 57.7955 256.325 57.7955C257.727 57.7955 259.308 57.9659 261.07 58.3068C262.831 58.6288 264.479 59.3011 266.013 60.3239C267.566 61.3466 268.731 62.8902 269.507 64.9545C270.303 67.0189 270.416 69.7841 269.848 73.25L265.075 102H258.371L259.393 96.0909H259.053C258.446 97.0379 257.518 98.0511 256.268 99.1307C255.037 100.21 253.475 101.129 251.581 101.886C249.706 102.644 247.5 103.023 244.962 103.023ZM246.893 97C249.545 97 251.865 96.4792 253.854 95.4375C255.861 94.3958 257.471 93.0511 258.683 91.4034C259.914 89.7557 260.681 88.0227 260.984 86.2045L262.007 80.0682C261.666 80.4091 260.994 80.7216 259.99 81.0057C258.986 81.2708 257.85 81.5076 256.581 81.7159C255.331 81.9053 254.109 82.0758 252.916 82.2273C251.742 82.3598 250.795 82.4735 250.075 82.5682C248.295 82.7955 246.6 83.1648 244.99 83.6761C243.399 84.1686 242.054 84.9167 240.956 85.9205C239.876 86.9053 239.204 88.25 238.939 89.9545C238.541 92.2841 239.1 94.0455 240.615 95.2386C242.13 96.4129 244.223 97 246.893 97ZM303.562 58.3636L302.653 64.0455H280.04L280.949 58.3636H303.562ZM289.244 47.9091H295.949L289.017 89.5C288.714 91.3939 288.761 92.8144 289.159 93.7614C289.576 94.6894 290.201 95.3144 291.034 95.6364C291.886 95.9394 292.805 96.0909 293.79 96.0909C294.528 96.0909 295.134 96.053 295.608 95.9773C296.081 95.8826 296.46 95.8068 296.744 95.75L297.199 101.773C296.688 101.943 295.996 102.114 295.125 102.284C294.273 102.473 293.222 102.568 291.972 102.568C290.078 102.568 288.297 102.161 286.631 101.347C284.964 100.532 283.686 99.2917 282.795 97.625C281.905 95.9583 281.669 93.8561 282.085 91.3182L289.244 47.9091ZM306.375 102L313.648 58.3636H320.352L313.08 102H306.375ZM319.045 50.9773C317.739 50.9773 316.612 50.5322 315.665 49.642C314.737 48.7519 314.273 47.6818 314.273 46.4318C314.273 45.1818 314.737 44.1117 315.665 43.2216C316.612 42.3314 317.739 41.8864 319.045 41.8864C320.352 41.8864 321.47 42.3314 322.398 43.2216C323.345 44.1117 323.818 45.1818 323.818 46.4318C323.818 47.6818 323.345 48.7519 322.398 49.642C321.47 50.5322 320.352 50.9773 319.045 50.9773ZM368.314 58.3636L344.905 102H338.087L329.223 58.3636H336.212L342.462 93.1364H342.916L360.757 58.3636H368.314ZM386.51 102.909C382.324 102.909 378.868 101.981 376.141 100.125C373.413 98.25 371.51 95.6364 370.43 92.2841C369.351 88.9129 369.18 84.9924 369.919 80.5227C370.658 76.053 372.125 72.1136 374.322 68.7045C376.519 65.2765 379.256 62.6061 382.533 60.6932C385.809 58.7614 389.408 57.7955 393.328 57.7955C395.601 57.7955 397.788 58.1742 399.891 58.9318C401.993 59.6894 403.811 60.9205 405.345 62.625C406.879 64.3106 407.949 66.5455 408.555 69.3295C409.161 72.1136 409.124 75.5417 408.442 79.6136L407.987 82.4545H374.351L375.26 76.6591H402.078C402.514 74.197 402.4 72 401.737 70.0682C401.093 68.1364 399.966 66.6117 398.357 65.4943C396.766 64.3769 394.749 63.8182 392.305 63.8182C389.786 63.8182 387.438 64.5 385.26 65.8636C383.082 67.2083 381.264 68.9129 379.805 70.9773C378.347 73.0227 377.438 75.1061 377.078 77.2273L376.283 82.2273C375.714 85.8447 375.8 88.7235 376.538 90.8636C377.296 93.0038 378.612 94.5473 380.487 95.4943C382.362 96.4223 384.711 96.8864 387.533 96.8864C389.332 96.8864 390.989 96.6402 392.504 96.1477C394.019 95.6364 395.374 94.8788 396.567 93.875C397.76 92.8523 398.764 91.5833 399.578 90.0682L405.714 91.8864C404.673 94.0833 403.205 96.0152 401.311 97.6818C399.436 99.3295 397.239 100.617 394.72 101.545C392.22 102.455 389.483 102.909 386.51 102.909ZM430.615 43.8182L429.82 48.9318C429.573 50.4848 429.015 52.142 428.143 53.9034C427.291 55.6458 426.193 57.3409 424.848 58.9886C423.503 60.6174 421.979 62.0379 420.274 63.25L417.092 60.2955C418.57 58.5909 419.886 56.8201 421.041 54.983C422.215 53.1269 422.982 51.1477 423.342 49.0455L424.251 43.8182H430.615ZM445.161 43.8182L444.365 48.9318C444.119 50.4848 443.56 52.142 442.689 53.9034C441.837 55.6458 440.738 57.3409 439.393 58.9886C438.049 60.6174 436.524 62.0379 434.82 63.25L431.638 60.2955C433.115 58.5909 434.431 56.8201 435.587 54.983C436.761 53.1269 437.528 51.1477 437.888 49.0455L438.797 43.8182H445.161Z" fill="#FA8F00"/>
<circle cx="503" cy="124" r="10" fill="#006CA9"/>
<circle cx="743" cy="124" r="10" fill="#006CA9"/>
<circle cx="279" cy="124" r="10" fill="#006CA9"/>
</svg>
